<svg xmlns="http://www.w3.org/2000/svg" viewBox="0 0 64 64" role="img" aria-label="Opercia">
  <defs>
    <linearGradient id="lane-a" x1="18" y1="8" x2="58" y2="55" gradientUnits="userSpaceOnUse">
      <stop stop-color="#5a55f3"/>
      <stop offset=".52" stop-color="#467cf7"/>
      <stop offset="1" stop-color="#38c9d2"/>
    </linearGradient>
    <linearGradient id="lane-b" x1="7" y1="54" x2="49" y2="15" gradientUnits="userSpaceOnUse">
      <stop stop-color="#7468f5"/>
      <stop offset=".55" stop-color="#536ff5"/>
      <stop offset="1" stop-color="#28b8df"/>
    </linearGradient>
    <linearGradient id="task" x1="28" y1="27" x2="37" y2="38" gradientUnits="userSpaceOnUse">
      <stop stop-color="#ffb367"/>
      <stop offset="1" stop-color="#ff874c"/>
    </linearGradient>
  </defs>
  <path fill="url(#lane-a)" d="M14 25C16.7 14.4 26.3 7 38 7c13.8 0 25 11.2 25 25 0 10.4-6.4 19.4-15.5 23.1 5.2-5.1 7.5-11.5 6.1-18.2-2-9.6-10.5-16.7-20.4-16.7-7.7 0-14.7 4.2-18.3 10.6L14 25Z"/>
  <path fill="url(#lane-b)" d="M50 39c-2.9 10.4-12.4 18-23.7 18C12.9 57 2 46.1 2 32.7c0-10 6.1-18.6 14.7-22.3-4.7 5-6.8 11.2-5.4 17.6 2 9.3 10.2 16.1 19.8 16.1 7.5 0 14.3-4.1 17.9-10.3L50 39Z"/>
  <rect x="26" y="26" width="12" height="12" rx="3" fill="url(#task)" transform="rotate(45 32 32)"/>
</svg>
